<svg width="50" height="50" viewBox="0 0 50 50" fill="none" xmlns="http://www.w3.org/2000/svg">
<path d="M22.9521 5.86244C23.0414 5.38453 23.2949 4.95289 23.669 4.64227C24.043 4.33165 24.5138 4.16162 25 4.16162C25.4862 4.16162 25.957 4.33165 26.3311 4.64227C26.7051 4.95289 26.9587 5.38453 27.0479 5.86244L29.2375 17.4416C29.393 18.2648 29.7931 19.0221 30.3855 19.6145C30.9779 20.2069 31.7351 20.6069 32.5583 20.7624L44.1375 22.952C44.6154 23.0413 45.0471 23.2949 45.3577 23.6689C45.6683 24.0429 45.8383 24.5138 45.8383 24.9999C45.8383 25.4861 45.6683 25.957 45.3577 26.331C45.0471 26.705 44.6154 26.9586 44.1375 27.0479L32.5583 29.2374C31.7351 29.393 30.9779 29.793 30.3855 30.3854C29.7931 30.9778 29.393 31.735 29.2375 32.5583L27.0479 44.1374C26.9587 44.6153 26.7051 45.047 26.3311 45.3576C25.957 45.6682 25.4862 45.8383 25 45.8383C24.5138 45.8383 24.043 45.6682 23.669 45.3576C23.2949 45.047 23.0414 44.6153 22.9521 44.1374L20.7625 32.5583C20.607 31.735 20.2069 30.9778 19.6145 30.3854C19.0221 29.793 18.2649 29.393 17.4417 29.2374L5.8625 27.0479C5.38459 26.9586 4.95295 26.705 4.64233 26.331C4.33172 25.957 4.16168 25.4861 4.16168 24.9999C4.16168 24.5138 4.33172 24.0429 4.64233 23.6689C4.95295 23.2949 5.38459 23.0413 5.8625 22.952L17.4417 20.7624C18.2649 20.6069 19.0221 20.2069 19.6145 19.6145C20.2069 19.0221 20.607 18.2648 20.7625 17.4416L22.9521 5.86244Z" stroke="#50DEA8" stroke-width="2" stroke-linecap="round" stroke-linejoin="round"/>
<path d="M41.6667 4.16675V12.5001" stroke="#50DEA8" stroke-width="2" stroke-linecap="round" stroke-linejoin="round"/>
<path d="M45.8333 8.33325H37.5" stroke="#50DEA8" stroke-width="2" stroke-linecap="round" stroke-linejoin="round"/>
<path d="M8.33332 45.8333C10.6345 45.8333 12.5 43.9679 12.5 41.6667C12.5 39.3655 10.6345 37.5 8.33332 37.5C6.03214 37.5 4.16666 39.3655 4.16666 41.6667C4.16666 43.9679 6.03214 45.8333 8.33332 45.8333Z" stroke="#50DEA8" stroke-width="2" stroke-linecap="round" stroke-linejoin="round"/>
</svg>
