<?xml version="1.0" standalone="no"?>
<!DOCTYPE svg PUBLIC "-//W3C//DTD SVG 20010904//EN"
 "http://www.w3.org/TR/2001/REC-SVG-20010904/DTD/svg10.dtd">
<svg version="1.0" xmlns="http://www.w3.org/2000/svg"
 width="512.000000pt" height="512.000000pt" viewBox="0 0 512.000000 512.000000"
 preserveAspectRatio="xMidYMid meet">

<g transform="translate(0.000000,512.000000) scale(0.100000,-0.100000)"
fill="#000000" stroke="none">
<path d="M2454 4120 c-162 -22 -317 -101 -439 -224 -152 -154 -225 -329 -225
-541 0 -212 72 -385 225 -541 210 -213 506 -284 792 -189 115 39 207 97 298
189 153 156 225 329 225 541 0 212 -72 385 -225 541 -125 126 -275 202 -448
224 -82 11 -118 11 -203 0z"/>
<path d="M1845 2240 c-312 -42 -576 -286 -639 -592 -19 -91 -23 -576 -6 -609
28 -51 -30 -49 1360 -49 1390 0 1332 -2 1360 49 16 31 13 522 -5 603 -31 147
-96 267 -205 379 -119 121 -272 197 -443 219 -86 11 -1336 11 -1422 0z"/>
</g>
</svg>
