<svg width="52" height="52" viewBox="0 0 52 52" fill="none" xmlns="http://www.w3.org/2000/svg">
<path d="M47.6667 23.8335V26.0001C47.6448 30.3731 46.3001 34.6372 43.8094 38.2317C41.3187 41.8262 37.7987 44.5829 33.7119 46.1394C29.6252 47.6959 25.1632 47.9793 20.9124 46.9524C16.6616 45.9254 12.821 43.6363 9.89557 40.3858C6.97013 37.1353 5.09676 33.0756 4.52173 28.7405C3.94671 24.4054 4.69695 19.9978 6.67382 16.097C8.6507 12.1963 11.7617 8.98501 15.5978 6.88543C19.4339 4.78584 23.8155 3.8962 28.1667 4.33345" stroke="#50DEA8" stroke-width="3" stroke-linecap="round" stroke-linejoin="round"/>
<path d="M17.3333 30.3333C17.3333 30.3333 20.5833 34.6666 26 34.6666C31.4167 34.6666 34.6667 30.3333 34.6667 30.3333" stroke="#50DEA8" stroke-width="3" stroke-linecap="round" stroke-linejoin="round"/>
<path d="M19.5 19.5H19.5217" stroke="#50DEA8" stroke-width="3" stroke-linecap="round" stroke-linejoin="round"/>
<path d="M32.5 19.5H32.5217" stroke="#50DEA8" stroke-width="3" stroke-linecap="round" stroke-linejoin="round"/>
<path d="M34.6667 10.8333H47.6667" stroke="#50DEA8" stroke-width="3" stroke-linecap="round" stroke-linejoin="round"/>
<path d="M41.1667 4.33325V17.3333" stroke="#50DEA8" stroke-width="3" stroke-linecap="round" stroke-linejoin="round"/>
</svg>
