<svg width="52" height="52" viewBox="0 0 52 52" fill="none" xmlns="http://www.w3.org/2000/svg">
<path d="M21.6666 23.8333V36.8333" stroke="#F7A8AD" stroke-width="3" stroke-linecap="round" stroke-linejoin="round"/>
<path d="M30.3334 23.8333V36.8333" stroke="#F7A8AD" stroke-width="3" stroke-linecap="round" stroke-linejoin="round"/>
<path d="M41.1667 13V43.3333C41.1667 44.4826 40.7102 45.5848 39.8975 46.3975C39.0848 47.2101 37.9826 47.6667 36.8334 47.6667H15.1667C14.0174 47.6667 12.9152 47.2101 12.1026 46.3975C11.2899 45.5848 10.8334 44.4826 10.8334 43.3333V13" stroke="#F7A8AD" stroke-width="3" stroke-linecap="round" stroke-linejoin="round"/>
<path d="M6.5 13H45.5" stroke="#F7A8AD" stroke-width="3" stroke-linecap="round" stroke-linejoin="round"/>
<path d="M17.3334 12.9999V8.66659C17.3334 7.51731 17.7899 6.41511 18.6026 5.60246C19.4152 4.7898 20.5174 4.33325 21.6667 4.33325H30.3334C31.4826 4.33325 32.5848 4.7898 33.3975 5.60246C34.2102 6.41511 34.6667 7.51731 34.6667 8.66659V12.9999" stroke="#F7A8AD" stroke-width="3" stroke-linecap="round" stroke-linejoin="round"/>
</svg>
